<svg width="55" height="6" viewBox="0 0 55 6" fill="none" xmlns="http://www.w3.org/2000/svg">
<g id="Frame">
<g id="Group">
<path id="Vector" d="M46.5319 3.28975C46.539 3.30253 46.5433 3.31673 46.5444 3.33134C46.5395 3.32565 46.5359 3.31901 46.5338 3.31185C46.5316 3.30469 46.531 3.29717 46.5319 3.28975Z" fill="#202020"/>
<path id="Vector_2" d="M40.4631 3.3235L40.533 3.34612C40.4823 3.34084 40.4697 3.33328 40.4631 3.3235Z" fill="#202020"/>
<path id="Vector_3" d="M50.1719 3.33266C50.1719 3.33266 50.1717 3.32667 50.1633 3.32295L50.42 3.32426L50.1719 3.33266Z" fill="#202020"/>
<path id="Vector_4" d="M34.8362 3.25948L34.9177 3.26271C34.8905 3.26513 34.8631 3.26405 34.8362 3.25948Z" fill="#202020"/>
<path id="Vector_5" d="M40.3991 3.08778C40.3673 3.06981 40.3316 3.05905 40.2949 3.05633C40.3463 3.05359 40.3857 3.05925 40.3991 3.08778Z" fill="#202020"/>
<path id="Vector_6" d="M52.104 2.67842L52.0032 2.73881C52.0042 2.70979 52.0394 2.68561 52.104 2.67842Z" fill="#202020"/>
<path id="Vector_7" d="M53.3623 1.52518C53.3676 1.52427 53.373 1.52408 53.3783 1.52462C53.3784 1.52762 53.3714 1.52687 53.3623 1.52518Z" fill="#202020"/>
<path id="Vector_8" d="M53.9361 2.36223C53.9167 2.39283 53.8954 2.42226 53.8723 2.45035C53.8936 2.41065 53.9071 2.35822 53.9361 2.36223Z" fill="#202020"/>
<path id="Vector_9" d="M53.8401 2.47683L53.8717 2.4377C53.8586 2.46217 53.8503 2.48247 53.8401 2.47683Z" fill="#202020"/>
<path id="Vector_10" d="M1.02776 3.47881C0.925607 3.47618 0.825131 3.45303 0.732666 3.41084L1.02776 3.47881Z" fill="#202020"/>
<path id="Vector_11" d="M26.3756 3.19199L26.3975 3.21624C26.3772 3.20794 26.3739 3.20005 26.3756 3.19199Z" fill="#202020"/>
<path id="Vector_12" d="M0.877641 3.08711L0.802979 3.10264C0.826651 3.09299 0.851974 3.08773 0.877641 3.08711Z" fill="#202020"/>
<path id="Vector_13" d="M50.1808 2.56853C50.0755 2.50713 49.8582 2.56746 49.8614 2.51138C49.9732 2.52559 50.1325 2.4872 50.1808 2.56853Z" fill="#202020"/>
<path id="Vector_14" d="M24.5919 1.64814L24.5217 1.64552C24.5451 1.6443 24.5686 1.64518 24.5919 1.64814Z" fill="#202020"/>
<path id="Vector_15" d="M0.87793 3.08913L0.963841 3.07123C0.95661 3.08221 0.948358 3.09253 0.93919 3.10205C0.91978 3.09407 0.899002 3.08969 0.87793 3.08913Z" fill="#202020"/>
<path id="Vector_16" d="M17.0811 3.3349L17.2187 3.35223C17.1721 3.36085 17.1239 3.35477 17.0811 3.3349Z" fill="#202020"/>
<path id="Vector_17" d="M0.734018 3.42766L0.565674 3.38838C0.623411 3.39374 0.680082 3.40697 0.734018 3.42766Z" fill="#202020"/>
<path id="Vector_18" d="M12.0452 3.36734C12.0668 3.36661 12.0884 3.36588 12.1093 3.37316C12.0877 3.37513 12.066 3.37315 12.0452 3.36734Z" fill="#202020"/>
<path id="Vector_19" d="M40.7354 3.0704C40.7518 3.06984 40.7732 3.06312 40.7916 3.05949C40.7983 3.07326 40.7945 3.08239 40.7354 3.0704Z" fill="#202020"/>
<path id="Vector_20" d="M37.4919 2.04878C37.3999 2.05212 37.3094 2.02485 37.2356 1.9715C37.3271 1.97138 37.4165 1.99833 37.4919 2.04878Z" fill="#202020"/>
<path id="Vector_21" d="M36.8772 1.99355L36.907 1.9875C36.8974 1.99103 36.8874 1.99306 36.8772 1.99355Z" fill="#202020"/>
<path id="Vector_22" d="M40.6362 2.00125C40.6366 2.00323 40.6367 2.00525 40.6364 2.00725L40.6362 2.00125Z" fill="#202020"/>
<path id="Vector_23" d="M39.8986 1.97237C39.8766 1.98469 39.8525 1.99297 39.8274 1.99677C39.8492 1.98398 39.8734 1.97567 39.8986 1.97237Z" fill="#202020"/>
<path id="Vector_24" d="M28.0296 1.42174C28.7333 1.44888 29.6448 1.54995 30.3417 1.53034C30.5292 1.60966 30.7318 1.65012 30.9364 1.64913L30.9599 1.53039L31.1448 1.5701C31.2208 1.53454 31.0028 1.54693 31.1362 1.50243L31.2058 1.57703C31.2208 1.53454 31.6821 1.5539 31.3718 1.46446L32.0934 1.474C32.253 1.46859 32.1856 1.57083 32.362 1.54786C32.3978 1.51366 32.2992 1.523 32.3132 1.48055C32.842 1.40066 32.9226 1.72079 33.4155 1.6741L33.3737 1.65753C33.4573 1.69068 33.617 1.68927 33.6186 1.7062C33.5549 1.82531 33.5307 1.64021 33.3796 1.7083C33.3914 1.80786 33.5661 1.76596 33.5565 1.84225C33.6717 1.80736 33.7398 1.86603 33.84 1.87363C34.0119 1.81283 34.2578 1.85947 34.387 1.78413C34.4925 1.85876 34.6152 1.90711 34.7445 1.92495C34.8747 1.84857 34.715 1.84898 34.8912 1.82003L34.9191 1.87905C35.0631 1.87417 35.0408 1.85594 35.0357 1.82812C35.1903 1.82888 35.1634 1.91076 35.3569 1.87722L35.2517 1.81781C35.3845 1.8373 35.5192 1.84246 35.6531 1.8332C35.6519 1.79925 35.5685 1.80008 35.51 1.80806C35.6193 1.72339 35.6949 1.84977 35.7534 1.8418C35.7368 1.86735 35.598 1.87605 35.665 1.93475C35.7678 1.92627 35.8741 2.01862 35.9459 1.95122L35.8408 1.89281C36.0486 1.94274 35.9465 1.96819 36.187 1.95105C36.1745 1.94648 36.1802 1.93229 36.1756 1.91945C36.3247 1.99736 36.5213 1.93373 36.7428 1.93322L36.701 1.91665C36.7904 1.93861 36.8387 1.99195 36.887 1.98831C36.7603 2.01959 36.795 2.03741 36.7825 2.0918C36.9502 1.99817 37.0361 2.20916 37.3094 2.15792C37.3082 2.12398 37.2407 2.08228 37.1646 2.11584C37.0736 2.01897 37.0621 1.9294 36.8965 1.88004C37.0004 1.9055 37.1205 1.92143 37.0964 1.87927L37.1275 1.97217C37.1905 1.97603 37.2397 1.96837 37.2873 1.97275C37.3131 2.03185 37.1598 2.06603 37.3045 2.10711C37.4674 2.14057 37.3928 2.01416 37.418 2.05628C37.6421 2.09767 37.5091 2.15315 37.7299 2.13168C37.708 2.12343 37.6661 2.10685 37.6479 2.11547C37.8033 2.08122 38.029 2.14054 38.0766 2.03098C38.0541 2.00575 38.0498 1.97191 37.9913 1.97989L37.9919 1.99686C37.8229 1.91163 38.134 2.02204 38.0819 1.92085C38.0686 1.98027 38.2899 1.97278 38.3864 1.96451L38.3548 2.03155C38.6789 2.24447 38.3397 1.89612 38.6604 1.93124C38.8683 1.98217 38.5827 1.94787 38.7071 1.99962C38.8354 1.96475 38.9692 1.95377 39.1017 1.96727C39.1584 1.94136 39.2747 1.90843 39.2854 1.8321C39.4082 1.86593 39.6606 1.8074 39.7303 1.884C39.5181 1.94217 39.5211 1.79813 39.2731 1.89149L39.3407 1.96717C39.5093 1.98508 39.6789 1.99169 39.8484 1.98695C39.8242 2.00077 39.8135 2.02012 39.8285 2.0366C40.0061 2.09209 40.1906 2.12384 40.377 2.13097C40.4097 2.0639 40.2719 2.07156 40.1685 2.06307C40.3223 2.01288 40.3283 2.06365 40.5658 2.04961C40.5791 1.99019 40.406 2.04903 40.3802 1.98993L40.6418 2.01605C40.6412 2.01208 40.6411 2.00807 40.6414 2.00407C40.6779 2.10279 40.8411 1.99731 41.0011 2.03486C41.3807 2.046 41.4361 2.18206 41.6453 2.26893C41.7021 2.24401 41.7198 2.21943 41.6962 2.19324C41.6018 2.23442 41.619 2.19585 41.5873 2.17294C41.7156 2.18758 41.8695 2.08441 41.7989 2.04182C42.0063 2.07678 41.7245 2.09232 41.8484 2.12711L42.1277 2.12964C42.0934 2.17978 41.9948 2.18712 42.1385 2.22923C42.2511 2.24184 42.3646 2.24568 42.4779 2.24072C42.4554 2.2155 42.5298 2.165 42.4102 2.16405C42.4508 2.15208 42.4937 2.14909 42.5356 2.15527C42.5776 2.16146 42.6176 2.17668 42.6527 2.19982C42.4779 2.24072 42.9369 2.25316 42.8056 2.32758L42.9804 2.28667C42.9402 2.28803 42.9369 2.25216 42.8764 2.26021C42.9272 2.18452 43.0185 2.28638 43.0838 2.29617C43.1451 2.28309 43.3048 2.28168 43.3181 2.25224C43.3539 2.26369 43.3919 2.26709 43.4292 2.26218C43.4665 2.25728 43.5022 2.24421 43.5335 2.22396C43.6145 2.2422 43.5353 2.27487 43.562 2.29996L43.8403 2.30252C43.8563 2.26 43.8819 2.14219 43.8411 2.12458C43.9457 2.16801 43.8756 2.25235 44.0353 2.25294C43.9457 2.16701 44.2476 2.19577 44.1172 2.09324C44.2776 2.04419 44.4487 2.03839 44.6122 2.07647C44.6992 2.14549 44.4567 2.10772 44.4633 2.17547C44.8655 2.21482 44.8836 2.40212 45.1817 2.38103L45.105 2.39662C45.2008 2.40879 45.2925 2.44191 45.3733 2.49349C45.3249 2.40817 45.588 2.27631 45.891 2.30603C45.9152 2.34918 45.7195 2.3798 45.7673 2.44815L45.9679 2.46834C45.9832 2.46283 45.961 2.44759 45.9348 2.43548C46.1144 2.47238 46.2735 2.33905 46.3224 2.43934L46.5089 2.32408L46.4354 2.37354C46.4596 2.4157 46.6613 2.43586 46.7021 2.45347C46.7663 2.47657 46.8349 2.48599 46.9031 2.48109C46.9714 2.47619 47.0378 2.45709 47.0978 2.42507C47.0609 2.45831 46.9686 2.5294 47.1313 2.55288C47.1336 2.41686 47.4731 2.51631 47.4704 2.44144C47.5355 2.44623 47.6537 2.40924 47.6588 2.46504L47.6506 2.38036C47.662 2.49892 47.9013 2.50381 48.0837 2.53261C48.0469 2.37093 48.2843 2.5538 48.3699 2.41197C48.4007 2.52188 48.6935 2.46898 48.7226 2.56295C48.8632 2.57418 48.8523 2.47259 48.8892 2.43936L48.9536 2.48315C49.1162 2.4433 49.2824 2.41926 49.4498 2.41137L49.5926 2.51349L49.6488 2.4726C49.6714 2.49782 49.7926 2.5177 49.7155 2.5503L49.7947 2.54762C49.7985 2.65244 49.9052 2.58086 50.0616 2.63254C50.0992 2.61727 50.09 2.59159 50.0595 2.57563C50.1379 2.57797 50.1061 2.52308 50.1502 2.4896C50.0934 2.51451 50.4284 2.69008 50.2134 2.72735C50.1974 2.76987 50.3192 2.80573 50.3991 2.79103L50.4494 2.69936L50.5386 2.80329C50.6599 2.82217 50.7135 2.76538 50.8121 2.75804C50.7087 2.74755 50.5991 2.56535 50.8542 2.5807C50.7597 2.5612 50.6687 2.5286 50.5838 2.48391C50.6373 2.48209 50.6649 2.47416 50.5819 2.431C50.7832 2.46916 50.648 2.49173 50.8476 2.51295C50.8394 2.42827 50.8962 2.40336 51.0717 2.38242L50.9398 2.43887C50.9453 2.44908 50.9539 2.45748 50.9643 2.46302C50.9141 2.46972 50.9001 2.48319 50.8889 2.51455C50.928 2.51323 51.1176 2.62875 51.1519 2.57861C50.9503 2.70239 51.5002 2.69376 51.3649 2.7713C51.3875 2.79653 51.527 2.8068 51.5419 2.76531C51.3766 2.69594 51.6695 2.67303 51.6395 2.61307C51.7012 2.63897 51.5077 2.67151 51.5903 2.7057C51.6715 2.70545 51.7509 2.68227 51.8187 2.63899L51.7779 2.62238L51.9313 2.5882C51.9565 2.63032 51.7822 2.65621 51.9233 2.68142C51.9608 2.66416 52.1018 2.68837 52.0975 2.65453C52.0304 2.59583 52.0802 2.51918 51.9601 2.50326C52.0635 2.51175 52.373 2.52325 52.247 2.60149L52.3654 2.59748C52.2915 2.63297 52.0824 2.69502 52.3209 2.70793L52.3203 2.69096L52.4865 2.7543L52.558 2.7099C52.5588 2.73086 52.5832 2.75103 52.6439 2.74897C52.6595 2.72345 52.7178 2.71248 52.7115 2.67871C52.8918 2.6806 52.8635 2.72254 52.8901 2.74663C52.9778 2.75065 53.005 2.73174 52.962 2.68322C53.0522 2.67017 53.209 2.67485 53.2352 2.6C53.3628 2.59568 53.2238 2.62837 53.3216 2.65305C53.3182 2.55921 53.3854 2.50695 53.4482 2.42186C53.5205 2.33864 53.5713 2.23997 53.5966 2.13397C53.7393 2.2061 53.6184 2.08125 53.7466 2.03693C53.727 2.06358 53.6919 2.00679 53.6599 1.97689C53.628 1.94699 53.6009 1.93891 53.5907 2.02722C53.5928 1.9909 53.5914 1.95448 53.5867 1.9184C53.5374 1.89208 53.5359 1.93811 53.5259 1.97543C53.5159 2.01275 53.4923 2.04254 53.4332 2.00356C53.4316 1.95864 53.4597 1.91071 53.4691 1.85741C53.4794 1.83006 53.4793 1.80008 53.4689 1.77279C53.4585 1.7455 53.4384 1.72269 53.4123 1.70841C53.3608 1.79611 53.3689 1.62092 53.3093 1.71189C53.2984 1.75225 53.3287 1.76321 53.3411 1.79178L53.3133 1.79272C53.238 1.7333 53.2414 1.71519 53.267 1.68134C53.2926 1.64749 53.34 1.6179 53.3028 1.55919C53.1674 1.48881 53.1437 1.57657 53.1192 1.61138C53.0599 1.60638 53.0043 1.58139 52.9621 1.54074C53.0476 1.6258 53.1924 1.55393 53.1662 1.48585C53.0367 1.5532 52.883 1.40548 52.8346 1.34815C53.1537 1.33734 53.0343 1.39936 53.3512 1.38762C53.3653 1.43512 53.3075 1.48906 53.4507 1.54518C53.4074 1.45869 53.4957 1.50767 53.53 1.5165C53.4627 1.53578 53.5929 1.60333 53.596 1.6592C53.6656 1.67584 53.6521 1.50137 53.7766 1.64009L53.7226 1.6849L53.6654 1.72782C53.7115 1.77724 53.7486 1.66203 53.7774 1.80499C53.8101 1.70993 53.9058 1.79264 53.8191 1.58967C53.8697 1.62229 53.9093 1.66865 53.9329 1.72297C53.9565 1.77728 53.963 1.83713 53.9517 1.89504C53.9241 1.99019 53.8885 2.08299 53.8453 2.17252C53.8549 2.1542 53.8734 2.15358 53.8841 2.13522C53.8536 2.18543 53.8319 2.24021 53.8199 2.29732C53.8246 2.4301 53.9024 2.21456 53.9347 2.25146L53.9128 2.35915L53.8762 2.46034C53.8764 2.46633 53.8765 2.46833 53.8838 2.46908C53.8453 2.51636 53.8043 2.55273 53.8283 2.5899C53.8875 2.57051 53.9443 2.54479 53.9977 2.5132C53.9413 2.5813 53.8738 2.63998 53.7978 2.68689C53.8557 2.69093 53.7309 2.88907 53.8646 2.76759L53.8271 2.81284C53.8023 2.83867 53.7651 2.86692 53.7271 2.89719C53.6776 2.93367 53.625 2.96589 53.5698 2.99348L53.5904 3.07874C53.4953 3.09896 53.4876 3.08722 53.5806 3.03709C53.4785 3.08021 53.3664 3.09642 53.2557 3.08408C53.1382 3.08307 53.0494 3.07708 53.0977 3.1614C52.7958 3.10366 52.7154 3.13137 52.385 3.08559C52.6362 3.16404 52.098 3.18427 52.3642 3.22124C52.2078 3.25752 52.1756 3.16565 52.0525 3.14983C51.9373 3.18472 51.9877 3.26897 52.1125 3.30173L51.9658 3.26072L51.9664 3.27769L51.8399 3.227C51.7044 3.26957 51.81 3.31198 51.6711 3.31968L51.6426 3.24368L51.5472 3.28489C51.5831 3.25169 51.5011 3.23348 51.4008 3.22488L51.4014 3.24185L51.2792 3.223C51.3995 3.2729 51.1673 3.23579 51.2208 3.29095C51.1218 3.29096 51.023 3.28328 50.9253 3.26798L50.9596 3.21784C50.7144 3.16317 50.9468 3.29423 50.7468 3.29002L50.7612 3.23155C50.4706 3.31836 50.2759 3.14804 50.0627 3.20824C50.1829 3.22715 50.1503 3.29423 50.1487 3.27729C49.9232 3.26605 49.6996 3.23038 49.4823 3.17092C49.4111 3.2543 49.3933 3.27389 49.1977 3.3085C49.0571 3.29727 49.0362 3.28799 48.989 3.23661C48.8519 3.26424 48.5973 3.2029 48.5882 3.26518C48.5575 3.21424 48.4647 3.26936 48.3909 3.22488L48.3743 3.24944L48.3887 3.19098C48.1427 3.31326 47.9824 3.09779 47.7338 3.20316L47.7756 3.22074L47.6716 3.19328C47.655 3.21883 47.6958 3.23644 47.7001 3.27027L47.2216 3.26049L47.3171 3.22028C47.2136 3.20979 47.1507 3.14995 47.0344 3.18188C47.2232 3.27543 46.8756 3.17926 46.843 3.24633L46.947 3.2738C46.8075 3.26353 46.8075 3.26353 46.8198 3.20414C46.6385 3.1763 46.6917 3.30843 46.5265 3.24206L46.6461 3.24401C46.682 3.21081 46.5977 3.15869 46.5183 3.15738C46.499 3.16603 46.4422 3.18994 46.5023 3.1999C46.3601 3.17173 46.1435 3.19406 46.0818 3.16817C46.004 3.18379 46.0282 3.22695 46.0691 3.24456C45.7648 3.1809 45.9301 3.24927 45.6249 3.18764L45.6262 3.22158L45.5215 3.17715L45.3693 3.24328L45.4245 3.20142C45.3324 3.18121 45.2377 3.17398 45.1435 3.17996L45.1896 3.23137C44.9069 3.19297 44.8594 3.30253 44.5917 3.22264C44.5734 3.23125 44.6142 3.24886 44.6362 3.25712C44.3876 3.16558 44.4454 3.33854 44.1964 3.23403C44.2114 3.25151 44.1833 3.27146 44.1931 3.28612L44.0794 3.24899L44.0819 3.31687L43.9906 3.21401L43.9188 3.28141L43.8754 3.2479C43.7501 3.37309 43.5794 3.27092 43.4107 3.3636L43.4417 3.27959C43.0228 3.09387 42.4755 3.3473 41.9681 3.24954L41.9757 3.31725L41.7665 3.23138C41.6529 3.28121 41.8326 3.29111 41.7967 3.32431C41.5725 3.27993 41.7054 3.22146 41.4437 3.19434C41.3092 3.23588 41.4888 3.24578 41.5495 3.27171C41.2934 3.21828 41.031 3.19925 40.7695 3.21517C40.7692 3.20619 40.7553 3.19366 40.7686 3.19022C40.5829 3.17091 40.3961 3.16455 40.2094 3.17117C40.2105 3.20212 40.2582 3.20851 40.3028 3.21599C40.234 3.2296 40.1628 3.22547 40.0962 3.204L40.1633 3.2637C40.0244 3.2684 39.7596 3.2114 39.728 3.27844C39.7446 3.25289 39.7386 3.20212 39.6222 3.20206C39.5547 3.3043 39.2978 3.15008 39.1069 3.20053C39.1294 3.22575 39.2699 3.23499 39.2297 3.23535C39.1366 3.24527 39.0428 3.22412 38.9638 3.17539L38.989 3.21751L38.5434 3.14864C38.476 3.25088 38.1221 3.12194 38.1516 3.1979C37.9919 3.19732 38.2861 3.15636 38.0846 3.1392C38.0304 3.18102 37.9023 3.11339 37.9099 3.1811L37.9308 3.18939L37.7903 3.18115L37.8783 3.24914C37.7571 3.23225 37.6692 3.16427 37.6674 3.11435C37.5522 3.14924 37.3892 3.11478 37.3357 3.17456L37.3785 3.1911C37.0558 3.15805 36.8416 3.36222 36.5891 3.24383C36.5698 3.25248 36.5725 3.26938 36.6116 3.26906L36.4117 3.26883L36.4588 3.31921L36.1302 3.23539L36.1314 3.26933C35.9132 3.27672 35.5724 3.25428 35.2925 3.23777L35.3344 3.25435C35.0293 3.19572 35.0385 3.28036 34.8186 3.23884C34.8244 3.24626 34.8325 3.25161 34.8418 3.25404L34.6355 3.24904L34.68 3.28251C34.532 3.20756 34.2525 3.37096 34.3451 3.31085C34.2605 3.27773 34.1158 3.23666 34.0916 3.1945C33.8718 3.18695 34.0375 3.23731 33.9014 3.26391C33.7429 3.26928 33.7149 3.20626 33.4994 3.23354L33.5007 3.26749C33.3974 3.25999 33.3377 3.23502 33.1973 3.22779L33.2391 3.24436C33.0108 3.17013 32.953 3.33901 32.7745 3.18913C32.6786 3.21537 32.4963 3.19056 32.505 3.25923C32.2199 3.21092 31.9985 3.18743 31.715 3.15605C31.6696 3.26654 31.654 3.14813 31.482 3.20992L31.4954 3.1505C31.0951 3.13807 30.6344 3.27962 30.1935 3.25257L30.1812 3.31196L30.0933 3.24597C29.6181 3.27006 29.0034 3.28289 28.6242 3.28374C28.4614 3.22442 28.2882 3.19634 28.1143 3.20106L28.1352 3.20935C27.7767 3.16495 27.4147 3.15512 27.0542 3.17999C27.0778 3.20518 27.0403 3.22245 27.0821 3.23902C26.9932 3.17307 26.8625 3.23447 26.7822 3.23619L26.8764 3.19201C26.825 3.1722 26.7693 3.16552 26.7145 3.17263C26.6597 3.17973 26.6078 3.20038 26.5636 3.2326L26.3943 3.16836C26.3832 3.17474 26.366 3.18332 26.3643 3.19337L26.3488 3.16291L26.2599 3.24089C26.2181 3.22431 25.9948 3.20389 25.9251 3.12828C25.9085 3.15383 25.7515 3.17414 25.8737 3.189L25.2562 3.20991L25.352 3.18168C25.3633 3.12233 25.1786 3.0876 25.0837 3.1128C25.209 3.16053 25.095 3.19738 25.0409 3.2412C24.9573 3.20904 25.1132 3.18877 25.0688 3.15629C24.9458 3.1142 24.8139 3.10285 24.6853 3.1233L24.748 3.14717C24.605 3.12502 24.5448 3.22901 24.3994 3.22395C24.273 3.17625 24.1798 3.22139 24.2049 3.11858C24.0218 3.0978 24.1353 3.18791 24.0759 3.19792C24.0146 3.17733 23.9495 3.16985 23.885 3.17601C23.8204 3.18216 23.7581 3.2018 23.7021 3.23357C23.6009 3.08407 23.2105 3.28821 23.173 3.16253L23.0241 3.23355C23.0168 3.19845 22.9972 3.1669 22.9685 3.14433C22.9399 3.12176 22.904 3.1096 22.8671 3.10992C22.753 3.14677 22.7809 3.2058 22.7461 3.23997L22.6674 3.11469C22.0086 3.24895 21.137 3.16653 20.4158 3.28492C20.0487 3.24055 19.6789 3.21969 19.309 3.22246L19.3507 3.23803L18.9771 3.27668L19.2479 3.21553C19.1745 3.19605 19.0991 3.18452 19.0231 3.18116C18.5399 3.26472 18.0477 3.28878 17.5583 3.25277C17.2277 3.11304 17.3425 3.38402 17.0277 3.28274C17.055 3.29581 17.065 3.31646 17.0892 3.32964C16.7984 3.2989 16.5099 3.25025 16.2256 3.18397C16.2678 3.32647 16.005 3.18344 16.0376 3.2583L16.0077 3.20034C15.9328 3.23687 15.7561 3.25285 15.7823 3.29394L15.6314 3.22409L15.6202 3.28444C15.4226 3.29113 15.0007 3.25145 14.8949 3.37498C14.2696 3.31559 13.6399 3.31416 13.0142 3.37071C12.8828 3.32912 12.7444 3.31276 12.6065 3.32255L12.4588 3.39753C12.3159 3.37937 12.1614 3.29365 12.0302 3.34208C12.0309 3.34616 12.0328 3.34996 12.0356 3.35305C12.0385 3.35614 12.0422 3.35838 12.0463 3.35952C11.9056 3.37478 11.7633 3.36399 11.6268 3.32775C11.4683 3.33312 11.3194 3.37715 11.365 3.44157C11.3464 3.32426 11.029 3.46695 11.029 3.46695L9.72377 3.53415C8.92872 3.57508 7.84649 3.62473 6.70275 3.65448C4.75524 3.7896 2.79849 3.7259 0.864698 3.46441C0.794724 3.40981 0.608142 3.37915 0.67561 3.30689C0.5318 3.29077 0.472758 3.39673 0.440827 3.33983C0.633868 3.29231 0.37365 3.19118 0.560359 3.11089L0.437419 3.10206C0.410216 3.062 0.605799 3.14233 0.572229 3.0685L0.611102 3.17514C0.680657 3.16813 0.745705 3.13844 0.795609 3.09092C0.890774 3.12968 0.955749 3.27441 1.17465 3.20103L1.11371 3.1971C1.29485 3.19096 1.22128 3.12248 1.25769 3.10326L1.21755 3.10462L1.36785 3.04355C1.25395 3.08539 1.05734 3.00509 1.16044 3.0066C1.37439 2.96737 1.10583 3.03544 1.26476 3.04205C1.36767 3.03856 1.33489 2.9867 1.32853 2.95293L1.50863 2.94683C1.50062 2.89612 1.38925 2.95087 1.46056 2.89948L1.68988 2.94369C1.72641 2.81351 1.93903 2.99522 2.03757 2.86994C1.87289 2.84653 2.05043 2.82652 2.0222 2.78649L2.42255 2.77293C2.45998 2.75367 2.31823 2.73748 2.37711 2.74149C2.45094 2.703 2.50272 2.76722 2.54282 2.76486C2.57552 2.72877 2.84128 2.75475 2.82687 2.66928C3.09645 2.60117 2.94598 2.7722 3.1963 2.71274C3.22736 2.65971 2.99007 2.70873 3.10545 2.65085L3.3685 2.65893C3.35302 2.63413 3.33007 2.61452 3.30275 2.60276C3.27542 2.591 3.24504 2.58764 3.21569 2.59314C3.77766 2.41873 4.35815 2.30652 4.94611 2.25865C5.03548 2.19365 4.87877 2.21995 4.81249 2.18221C5.2857 2.24614 5.46834 2.02406 5.8689 2.01648L5.87794 2.06716C6.49004 1.95319 7.11098 1.88969 7.73413 1.87734L7.66026 1.91482C7.76781 1.95116 7.87983 1.97358 7.99342 1.9815C8.00793 1.95502 7.91441 1.87623 8.09836 1.89099C8.06093 1.91025 7.98442 1.93183 8.00793 1.95502C8.85835 1.82805 9.71563 1.74894 10.5755 1.71812C11.7814 1.72725 13.0853 1.59412 14.2697 1.60598C14.0893 1.60509 14.1711 1.72926 14.3039 1.69777C14.6711 1.47943 14.9498 1.72087 15.3297 1.56907C15.9781 1.52437 16.6292 1.53006 17.2768 1.58607L17.288 1.52572C17.3828 1.49752 17.4101 1.53858 17.5102 1.54318L17.5096 1.52621C17.7467 1.50019 18.0352 1.55739 18.1711 1.52679L18.1808 1.59444C18.3221 1.59864 18.253 1.54101 18.3986 1.57806L18.3974 1.54412L18.5676 1.60532C18.5489 1.48701 18.9659 1.59183 19.0803 1.53598C19.3474 1.57487 19.6177 1.58881 19.8876 1.5776C19.938 1.51692 20.2779 1.5144 20.4942 1.48209C20.916 1.49378 21.5194 1.50933 22.0563 1.48315L22.0477 1.5594L22.188 1.56365C22.1874 1.54667 22.2046 1.53809 22.1868 1.5297C22.2949 1.44208 22.5103 1.55573 22.6227 1.50094C22.552 1.57031 22.5201 1.51242 22.4449 1.51396C22.3298 1.55085 22.4406 1.62406 22.5959 1.58581L22.5952 1.56884L22.6997 1.60928C22.711 1.54993 22.8068 1.52169 22.8191 1.4623C23.2349 1.5127 23.6532 1.54157 24.0722 1.5488C24.0224 1.48252 24.4149 1.56518 24.318 1.44952C24.6039 1.49281 24.2719 1.54304 24.4026 1.62457C24.4818 1.62188 24.5664 1.654 24.5804 1.61155C24.5423 1.58385 24.6448 1.5414 24.5775 1.53068L24.7684 1.53921C24.7866 1.5306 24.7448 1.51402 24.7229 1.50677C25.1127 1.57253 25.4126 1.42943 25.7623 1.49854C25.7886 1.54064 25.6236 1.50924 25.6499 1.55233C26.0013 1.64038 25.9563 1.47798 26.2883 1.5397L26.2203 1.48203C26.2679 1.51222 26.3219 1.53182 26.3783 1.53941C26.4347 1.547 26.4921 1.54241 26.5464 1.52596C26.577 1.45796 26.3981 1.47001 26.3144 1.43387C26.4338 1.42982 26.7364 1.45055 26.6448 1.51163C26.7879 1.53477 26.8403 1.47402 26.9169 1.45544C26.9175 1.47241 26.7836 1.50093 26.8671 1.53209C27.1105 1.50133 27.356 1.48801 27.6014 1.49222C27.6008 1.47525 27.6153 1.44977 27.5996 1.44131C27.7871 1.5539 27.7661 1.40168 28.0296 1.42174Z" fill="#202020"/>
<path id="Vector_25" d="M40.746 2.00171L40.6124 2.01223C40.6117 1.99227 40.6109 1.96831 40.5461 1.94551L40.746 2.00171Z" fill="#202020"/>
<path id="Vector_26" d="M36.1755 1.92941C36.1588 1.92234 36.1429 1.91349 36.1282 1.90303C36.1603 1.90794 36.1711 1.92157 36.1755 1.92941Z" fill="#202020"/>
<path id="Vector_27" d="M35.061 1.77608C35.1649 1.79855 35.0719 1.82069 35.0181 1.8425C35.0164 1.82457 35.0228 1.80236 35.061 1.77608Z" fill="#202020"/>
<path id="Vector_28" d="M39.2395 2.39948C39.2165 2.39026 39.2027 2.37774 39.2071 2.3586C39.2376 2.37556 39.2443 2.38832 39.2395 2.39948Z" fill="#202020"/>
<path id="Vector_29" d="M49.0959 2.53931L49.0562 2.55165C49.0679 2.54398 49.0817 2.5397 49.0959 2.53931Z" fill="#202020"/>
<path id="Vector_30" d="M48.544 2.63597C48.5065 2.63445 48.4692 2.62866 48.4331 2.61873C48.471 2.61561 48.509 2.62153 48.544 2.63597Z" fill="#202020"/>
<path id="Vector_31" d="M41.5898 2.17866C41.5529 2.17649 41.5172 2.16569 41.4856 2.14721C41.5229 2.14645 41.5595 2.15749 41.5898 2.17866Z" fill="#202020"/>
<path id="Vector_32" d="M48.3206 2.60578L48.1827 2.61045C48.1819 2.60449 48.1817 2.59848 48.182 2.59248L48.3206 2.60578Z" fill="#202020"/>
<path id="Vector_33" d="M49.2688 2.53844C49.2111 2.53745 49.1534 2.53941 49.0959 2.5443C49.1513 2.52369 49.2122 2.52162 49.2688 2.53844Z" fill="#202020"/>
<path id="Vector_34" d="M42.852 2.54602L42.8376 2.54651C42.7318 2.50011 42.7984 2.51885 42.852 2.54602Z" fill="#202020"/>
<path id="Vector_35" d="M47.7258 2.47789L47.7073 2.47852L47.6682 2.45186L47.7258 2.47789Z" fill="#202020"/>
<path id="Vector_36" d="M49.8609 2.52539C49.8372 2.52405 49.8141 2.51767 49.7932 2.50669L49.8714 2.50404C49.8661 2.51019 49.8625 2.51753 49.8609 2.52539Z" fill="#202020"/>
<path id="Vector_37" d="M44.9198 2.46486C44.9581 2.50054 44.9713 2.52309 44.972 2.54106C44.9265 2.5376 44.8981 2.52157 44.9198 2.46486Z" fill="#202020"/>
</g>
</g>
</svg>
